<?xml version="1.0" encoding="iso-8859-1"?>
<!-- Generator: Adobe Illustrator 19.0.0, SVG Export Plug-In . SVG Version: 6.00 Build 0)  -->
<svg version="1.1" id="Capa_1" xmlns="http://www.w3.org/2000/svg" xmlns:xlink="http://www.w3.org/1999/xlink" x="0px" y="0px"
	 viewBox="0 0 508 508" style="enable-background:new 0 0 508 508;fill:#ffa6a6;" xml:space="preserve">
<g>
	<g>
		<path d="M490.25,35.1L467.15,12c-16-16-42-16-57.9,0L42.45,378.7l-36.8,118l118-36.8l366.6-366.8c7.7-7.7,12-18,12-29
			C502.25,53.2,497.95,42.9,490.25,35.1z M403.35,40.9l23.2,23.2L84.45,406.3l-23.2-23.2L403.35,40.9z M30.65,471.8l22.8-73.3
			l50.4,50.4L30.65,471.8z M119.15,441l-23.2-23.2l342.2-342.1l23.2,23.2L119.15,441z M478.75,81.6l-5.8,5.8l-58-58l5.8-5.8
			c9.6-9.6,25.2-9.6,34.8,0l23.2,23.2c4.6,4.6,7.2,10.8,7.2,17.4C485.95,70.8,483.35,76.9,478.75,81.6z"/>
	</g>
</g>
<g>
	<g>
		<rect x="100.85" y="491.6" width="401.5" height="16.4"/>
	</g>
</g>
<g>
</g>
<g>
</g>
<g>
</g>
<g>
</g>
<g>
</g>
<g>
</g>
<g>
</g>
<g>
</g>
<g>
</g>
<g>
</g>
<g>
</g>
<g>
</g>
<g>
</g>
<g>
</g>
<g>
</g>
</svg>
