<svg id="Capa_1" enable-background="new 0 0 510.991 510.991" height="512" style="fill:white;" viewBox="0 0 510.991 510.991" width="512" xmlns="http://www.w3.org/2000/svg"><g><path d="m510.934 146.227c-.239-65.213-53.366-118.197-118.635-118.197-33.604 0-64.986 13.995-87.252 38.218-22.265-24.222-53.647-38.218-87.251-38.218-65.269 0-118.396 52.983-118.635 118.196-.221 4.508-.435 26.324 12.772 59.303-7.351-1.938-15.01-2.97-22.837-2.97-48.984 0-88.859 39.751-89.063 88.688-.388 9.498.482 93.735 143.252 186.41l8.167 5.302 8.167-5.302c52.851-34.307 86.243-67.453 107.338-96.084 9.439 6.746 19.395 13.542 29.925 20.378l8.167 5.302 8.167-5.302c198.807-129.05 198.262-244.644 197.718-255.724zm-359.483 300.868c-63.572-42.839-93.231-81.972-106.967-107.674-14.553-27.233-14.522-45.123-14.486-46.736l.033-1.06c0-32.568 26.496-59.064 59.064-59.064 20.204 0 38.797 10.165 49.735 27.19l12.619 19.641 12.62-19.641c10.94-17.026 29.534-27.191 49.737-27.191 32.568 0 59.064 26.496 59.064 59.064l-.037.37.07.674c.036 1.511.114 19.428-14.487 46.752-13.734 25.703-43.393 64.836-106.965 107.675zm309.145-231.843c-34.864 66.059-102.209 120.58-155.549 156.163-7.05-4.703-14.348-9.748-21.781-15.099 19.667-35.47 19.804-60.177 19.604-65.068-.204-48.938-40.079-88.688-89.063-88.688-22.09 0-42.896 8.061-58.953 22.273-1.854-3.167-3.653-6.356-5.355-9.581-17.232-32.651-20.862-58.351-20.378-67.485l.039-1.101c0-48.874 39.762-88.636 88.636-88.636 30.317 0 58.218 15.252 74.633 40.799l12.619 19.641 12.619-19.641c16.415-25.547 44.315-40.799 74.633-40.799 48.874 0 88.636 39.762 88.636 88.636l-.024.43.063.664c.486 9.128-3.141 34.833-20.379 67.492z"/></g></svg>